<svg id="visual" viewBox="0 0 900 150" width="900" height="150" xmlns="http://www.w3.org/2000/svg" xmlns:xlink="http://www.w3.org/1999/xlink" version="1.1"><rect x="0" y="0" width="900" height="150" fill="#d2daff"></rect><path d="M0 58L75 23L150 56L225 59L300 41L375 63L450 35L525 60L600 46L675 62L750 27L825 53L900 36L900 151L825 151L750 151L675 151L600 151L525 151L450 151L375 151L300 151L225 151L150 151L75 151L0 151Z" fill="#b1b2ff"></path><path d="M0 57L75 76L150 73L225 73L300 59L375 48L450 74L525 66L600 52L675 55L750 45L825 58L900 56L900 151L825 151L750 151L675 151L600 151L525 151L450 151L375 151L300 151L225 151L150 151L75 151L0 151Z" fill="#a07ba6"></path><path d="M0 93L75 76L150 91L225 82L300 112L375 80L450 96L525 98L600 93L675 108L750 77L825 92L900 77L900 151L825 151L750 151L675 151L600 151L525 151L450 151L375 151L300 151L225 151L150 151L75 151L0 151Z" fill="#6f525e"></path><path d="M0 121L75 117L150 128L225 107L300 101L375 133L450 121L525 126L600 130L675 102L750 107L825 125L900 102L900 151L825 151L750 151L675 151L600 151L525 151L450 151L375 151L300 151L225 151L150 151L75 151L0 151Z" fill="#312f2f"></path></svg>